<svg viewBox="0 0 653 477" xmlns="http://www.w3.org/2000/svg" fill-rule="evenodd" clip-rule="evenodd" stroke-linejoin="round" stroke-miterlimit="1.41"><path d="M48.38 355.16H83.8v2.83c0 6.45-.76 12.15-2.28 17.1a36.36 36.36 0 0 1-7.5 12.9c-7.96 8.96-18.08 13.43-30.38 13.43-12 0-22.27-4.33-30.82-13C4.28 379.73 0 369.3 0 357.1c0-12.44 4.35-22.99 13.05-31.65 8.7-8.7 19.3-13.06 31.77-13.06a43.6 43.6 0 0 1 18.77 4.1c5.56 2.72 11.02 7.16 16.39 13.29l-9.22 8.83c-7.04-9.37-15.61-14.05-25.72-14.05-9.07 0-16.68 3.13-22.82 9.38-6.15 6.15-9.22 13.85-9.22 23.1 0 9.56 3.42 17.43 10.27 23.61 6.4 5.74 13.35 8.61 20.83 8.61a25.9 25.9 0 0 0 17.16-6.42c5.07-4.33 7.9-9.5 8.5-15.52H48.38v-12.16z" fill="#15003e" fill-rule="nonzero"/><path fill="#15003e" d="M129.66 314.06h12.94v85.75h-12.94z"/><path d="M216.44 326.22v73.6H203.5v-73.6h-19.72v-12.16h52.32v12.16h-19.66zm121.1-7.58v15.3c-7.48-6.25-15.22-9.38-23.22-9.38-8.8 0-16.23 3.16-22.27 9.5-6.07 6.29-9.1 14-9.1 23.1 0 9 3.03 16.59 9.1 22.77s13.52 9.27 22.33 9.27c4.56 0 8.42-.73 11.6-2.22a33.39 33.39 0 0 0 5.53-3 65.6 65.6 0 0 0 6.03-4.55v15.63a46.58 46.58 0 0 1-23.33 6.3c-12.25 0-22.71-4.27-31.38-12.82-8.62-8.63-12.94-19.03-12.94-31.21 0-10.93 3.61-20.66 10.83-29.22 8.89-10.48 20.39-15.72 34.5-15.72 7.7 0 15.14 2.09 22.32 6.25" fill="#15003e" fill-rule="nonzero"/><path d="M399.4 343.02c0 9.47 3.18 17.26 9.55 23.37 6.33 6.1 13.64 9.15 21.94 9.15 9 0 16.59-3.1 22.77-9.32 6.18-6.29 9.27-13.95 9.27-22.97 0-9.14-3.05-16.8-9.16-22.98-6.07-6.21-13.59-9.32-22.55-9.32-8.92 0-16.46 3.1-22.6 9.32-6.15 6.14-9.22 13.73-9.22 22.75m-13.06-.14c0-12.07 4.43-22.43 13.28-31.1 8.81-8.66 19.4-13 31.77-13 12.22 0 22.7 4.38 31.43 13.11 8.78 8.74 13.16 19.24 13.16 31.5 0 12.32-4.4 22.78-13.21 31.37-8.85 8.63-19.54 12.95-32.05 12.95-11.07 0-21.01-3.84-29.82-11.5-9.7-8.48-14.56-19.59-14.56-33.33" fill="#0fce7c" fill-rule="nonzero"/><path fill="#15003e" d="M514.1 314.06h12.94v85.75H514.1z"/><path d="M577.22 399.81v-91.58l62.54 65.42v-59.59h12.94v90.97l-62.54-65.25v60.03h-12.94zm-438.49 72.93h2.07c2.5 0 5.12-.75 5.12-3.83 0-3.05-3.1-3.68-5.52-3.68h-1.67v7.5zm0-9.67h.7c2.55 0 4.65-.51 4.65-3.62 0-3.05-2.07-3.57-4.6-3.57h-.75v7.2zm-2.7-9.6h2.64c4.09 0 7.94 1.06 7.94 5.95 0 1.58-.86 3.42-2.33 4.11v.06c2.56.46 4.35 2.96 4.35 5.5 0 4.34-3.71 6.06-7.54 6.06h-5.06v-21.68zm25.42 0v12.8c0 3.54 1.07 6.81 5.24 6.81s5.23-3.27 5.23-6.81v-12.8h2.7v13.72c0 4.77-2.96 8.43-7.93 8.43-4.98 0-7.94-3.66-7.94-8.43v-13.72h2.7z" fill="#15003e" fill-rule="nonzero"/><path fill="#15003e" d="M185.75 453.47h2.7v21.69h-2.7z"/><path d="M202.7 472.68h6.58v2.47H200v-21.68h2.7v19.21zm18.31 0h.95c5.53 0 10.3-2.07 10.3-8.37 0-6.33-4.77-8.37-10.3-8.37h-.95v16.74zm-2.7-19.21h4.49c6.64 0 12.16 3.5 12.16 10.73 0 7.39-5.4 10.95-12.25 10.95h-4.4v-21.68zm40.39 0h3.1l5.32 9.26 5.32-9.26h3.1l-7.07 12.25v9.43h-2.7v-9.43l-7.08-12.25zm44.69 10.84c0-4.77-3.57-8.77-8.66-8.77-5.1 0-8.66 4-8.66 8.77a8.71 8.71 0 0 0 8.66 8.77 8.71 8.71 0 0 0 8.66-8.77m2.7 0c0 6.44-5.1 11.3-11.36 11.3a11.2 11.2 0 0 1-11.36-11.3 11.4 11.4 0 0 1 11.36-11.3 11.4 11.4 0 0 1 11.36 11.3m12.42-10.84v12.8c0 3.54 1.07 6.81 5.24 6.81s5.23-3.27 5.23-6.81v-12.8h2.7v13.72c0 4.77-2.96 8.43-7.93 8.43-4.98 0-7.94-3.66-7.94-8.43v-13.72h2.7zm27.09 10.27h.87c2.76 0 5.75-.52 5.75-3.97 0-3.4-3.22-3.89-5.9-3.89h-.72v7.86zm10.79 11.41h-3.28l-6.38-9.17h-1.13v9.17h-2.7v-21.68h3.28c1.93 0 4 .03 5.72 1a6 6 0 0 1 2.85 5.18c0 3.1-2.07 5.7-5.2 6.07l6.84 9.43zm27.87-2.41h2.07c2.5 0 5.12-.75 5.12-3.83 0-3.05-3.1-3.68-5.52-3.68h-1.67v7.5zm0-9.67h.69c2.56 0 4.66-.51 4.66-3.62 0-3.05-2.07-3.57-4.6-3.57h-.75v7.2zm-2.7-9.6h2.64c4.08 0 7.94 1.06 7.94 5.95 0 1.58-.86 3.42-2.33 4.11v.06c2.56.46 4.34 2.96 4.34 5.5 0 4.34-3.7 6.06-7.53 6.06h-5.07v-21.68z" fill="#15003e" fill-rule="nonzero"/><path d="M424.14 458.31c0-4.77-3.56-8.77-8.66-8.77-5.09 0-8.65 4-8.65 8.77a8.71 8.71 0 0 0 8.65 8.77 8.71 8.71 0 0 0 8.66-8.77m2.7 0a11.2 11.2 0 0 1-11.35 11.3 11.2 11.2 0 0 1-11.37-11.3 11.4 11.4 0 0 1 11.36-11.3 11.4 11.4 0 0 1 11.37 11.3" fill="#0fce7c" fill-rule="nonzero"/><path d="M438.27 453.47v12.8c0 3.54 1.06 6.81 5.23 6.81s5.24-3.27 5.24-6.81v-12.8h2.7v13.72c0 4.77-2.96 8.43-7.94 8.43-4.97 0-7.93-3.66-7.93-8.43v-13.72h2.7zm24.13-1.04l16.28 17.06v-16.02h2.7v22.58l-16.28-17.06v16.16h-2.7v-22.72zm36.15 22.72h-2.7v-19.2h-5.15v-2.48h13v2.47h-5.15v19.21zm12.51-21.68h3.1l5.33 9.26 5.32-9.26h3.1l-7.07 12.25v9.43h-2.7v-9.43l-7.08-12.25z" fill="#15003e" fill-rule="nonzero"/><path d="M359.39 107.9l13.95 27.5-10.58 44.96-25.22-20.6 4.42-32.98 17.43-18.88z" fill="#fff" fill-rule="nonzero"/><path d="M322.14 98.69a5.26 5.26 0 0 1-5.26-5.26V52.01a5.26 5.26 0 0 1 10.51 0v41.42c0 2.9-2.35 5.26-5.25 5.26" fill="#15003e" fill-rule="nonzero"/><path d="M330.57 98.69h-16.25a5.26 5.26 0 0 1 0-10.51h16.25a5.26 5.26 0 0 1 0 10.51" fill="#15003e" fill-rule="nonzero"/><path d="M359.39 107.9l17.27-16.27a73.03 73.03 0 1 0-51.64 124.67c15.03 0 28.26 5.49 39.87-2.3l14.45 2-.41-23.47-41.4-32.77 8.9-41.92 12.96-9.94" fill="#fff" fill-rule="nonzero"/><path d="M325.02 223.46c-44.22 0-80.2-35.97-80.2-80.2 0-44.21 35.98-80.2 80.2-80.2a79.67 79.67 0 0 1 56.7 23.5l5.23 5.22-22.64 21.34-9.84-10.43 11.6-10.94a65.36 65.36 0 0 0-41.05-14.35 65.94 65.94 0 0 0-65.86 65.87 65.94 65.94 0 0 0 65.86 65.86" fill="#15003e" fill-rule="nonzero"/><path d="M365.27 182.27l-10.3-9.98a41.5 41.5 0 0 0 11.76-29.02c0-11.38-4.49-22-12.65-29.93l-5.37-5.22 5.76-5.43 4.9 5.2 4.7-4.83a55.6 55.6 0 0 1 17 40.2 55.77 55.77 0 0 1-15.8 39" fill="#0fce7c" fill-rule="nonzero"/><path d="M308.53 143.27a16.49 16.49 0 1 1 32.98 0 16.49 16.49 0 0 1-32.98 0" fill="#eff4ee" fill-rule="nonzero"/><path d="M325.02 133.94a9.33 9.33 0 0 0 0 18.65 9.33 9.33 0 0 0 0-18.65m0 32.98a23.68 23.68 0 0 1-23.66-23.65 23.68 23.68 0 0 1 23.66-23.66 23.68 23.68 0 0 1 23.66 23.66 23.68 23.68 0 0 1-23.66 23.65m51.64-75.3l-41.67 38.51" fill="#15003e" fill-rule="nonzero"/><path d="M371.8 86.36l9.73 10.53-41.68 38.5-9.73-10.52 41.68-38.51z" fill="#15003e"/><path d="M332.8 157.8l29.96 22.56 16.17 12.17v30.93l-32.5-1.56" fill="#fff" fill-rule="nonzero"/><path d="M386.1 223.46h-62.38v-14.33h48.04v-13.02l-43.27-32.58 8.62-11.45 48.99 36.88v34.5z" fill="#15003e" fill-rule="nonzero"/><path d="M391.18 55.95l5.75-5.74 5.74 5.74-5.74 5.75-5.75-5.75zm-24.69-27.69l2.74-2.75 2.75 2.75-2.75 2.74-2.74-2.74z" fill="#25e899"/><path d="M400.51 4.14a4.14 4.14 0 1 0-8.28 0 4.14 4.14 0 0 0 8.28 0" fill="#25e899" fill-rule="nonzero"/><path d="M297.26 113.16a5.26 5.26 0 0 1-5.26-5.26V52a5.26 5.26 0 0 1 10.51 0v55.9c0 2.9-2.35 5.26-5.25 5.26" fill="#15003e" fill-rule="nonzero"/></svg>